<svg width="16" height="16" viewBox="0 0 16 16" fill="none" xmlns="http://www.w3.org/2000/svg">
<rect width="16" height="16" rx="4" fill="#14120B"/>
<g clip-path="url(#clip0_100_36)">
<path d="M8.00012 7.83334L12.9529 10.7529C12.9225 10.8067 12.8783 10.8526 12.8237 10.8848L8.19445 13.6135C8.07425 13.6844 7.92599 13.6844 7.80579 13.6135L3.17656 10.8848C3.12192 10.8526 3.07779 10.8067 3.04736 10.7529L8.00012 7.83334Z" fill="#72716D"/>
<path d="M8.00011 2V7.83333L3.04735 10.7528C3.01693 10.699 3 10.6369 3 10.5726V5.09408C3 4.96523 3.06728 4.84645 3.17655 4.78191L7.80556 2.05316C7.86577 2.01772 7.93283 2 7.99989 2H8.00011Z" fill="#55544F"/>
<path d="M12.9525 4.91382C12.9221 4.86001 12.878 4.81407 12.8233 4.78191L8.19412 2.05316C8.13412 2.01772 8.06706 2 8 2V7.83333L12.9528 10.7528C12.9832 10.699 13.0001 10.6369 13.0001 10.5726V5.09408C13.0001 5.02954 12.9834 4.96786 12.9528 4.91382H12.9525Z" fill="#43413C"/>
<path d="M12.6062 5.11814C12.6342 5.16758 12.6381 5.23102 12.6062 5.28746L8.1104 13.2375C8.08019 13.2913 7.99985 13.2692 7.99985 13.2073V7.96852C7.99985 7.92674 7.98892 7.88649 7.96899 7.85127L12.6059 5.11792H12.6062V5.11814Z" fill="#D6D5D2"/>
<path d="M12.6061 5.11814L7.96916 7.85149C7.94945 7.81648 7.92074 7.78673 7.88517 7.76573L3.44171 5.14636C3.389 5.11551 3.41064 5.03348 3.47127 5.03348H12.4626C12.5264 5.03348 12.5783 5.0687 12.6061 5.11814Z" fill="white"/>
</g>
<defs>
<clipPath id="clip0_100_36">
<rect width="10" height="11.6667" fill="white" transform="translate(3 2)"/>
</clipPath>
</defs>
</svg>
