<svg width="16" height="16" viewBox="0 0 16 16" fill="none" xmlns="http://www.w3.org/2000/svg">
<rect width="16" height="16" rx="4" fill="white"/>
<g clip-path="url(#clip0_101_3)">
<mask id="mask0_101_3" style="mask-type:alpha" maskUnits="userSpaceOnUse" x="2" y="2" width="12" height="12">
<path fill-rule="evenodd" clip-rule="evenodd" d="M10.5094 13.9181C10.6984 13.9917 10.9139 13.987 11.1047 13.8952L13.5753 12.7064C13.8349 12.5814 14 12.3187 14 12.0305V3.9696C14 3.68136 13.8349 3.41862 13.5753 3.2937L11.1047 2.10485C10.8543 1.98438 10.5614 2.01389 10.3416 2.17363C10.3102 2.19645 10.2803 2.22193 10.2523 2.25001L5.52261 6.56498L3.46246 5.00115C3.27068 4.85558 3.00244 4.86751 2.82432 5.02953L2.16356 5.63059C1.94569 5.82877 1.94544 6.17152 2.16302 6.37004L3.94965 8.00001L2.16302 9.62998C1.94544 9.82849 1.94569 10.1713 2.16356 10.3694L2.82432 10.9705C3.00244 11.1325 3.27068 11.1444 3.46246 10.9989L5.52261 9.43504L10.2523 13.75C10.3271 13.8249 10.415 13.8812 10.5094 13.9181ZM11.0018 5.27587L7.41309 8.00001L11.0018 10.7241V5.27587Z" fill="white"/>
</mask>
<g mask="url(#mask0_101_3)">
<path d="M13.5753 3.29557L11.1028 2.10509C10.8166 1.96729 10.4746 2.02542 10.25 2.25002L2.1558 9.63001C1.93809 9.8285 1.93834 10.1713 2.15634 10.3694L2.8175 10.9705C2.99572 11.1325 3.26413 11.1445 3.45603 10.9989L13.2033 3.60441C13.5303 3.35634 14 3.58957 14 4.00003V3.97132C14 3.6832 13.8349 3.42056 13.5753 3.29557Z" fill="#0065A9"/>
<g filter="url(#filter0_d_101_3)">
<path d="M13.5753 12.7045L11.1028 13.895C10.8166 14.0328 10.4746 13.9746 10.25 13.75L2.1558 6.37005C1.93809 6.17154 1.93834 5.82877 2.15634 5.6306L2.8175 5.02954C2.99572 4.86752 3.26413 4.85559 3.45603 5.00116L13.2033 12.3956C13.5303 12.6437 14 12.4105 14 12V12.0287C14 12.3168 13.8349 12.5795 13.5753 12.7045Z" fill="#007ACC"/>
</g>
<g filter="url(#filter1_d_101_3)">
<path d="M11.1029 13.8952C10.8167 14.0329 10.4746 13.9746 10.25 13.75C10.5268 14.0268 11 13.8308 11 13.4394V2.56067C11 2.16926 10.5268 1.97324 10.25 2.25001C10.4746 2.02538 10.8167 1.96717 11.1029 2.10485L13.575 3.2937C13.8348 3.41862 14 3.68136 14 3.9696V12.0305C14 12.3187 13.8348 12.5814 13.575 12.7064L11.1029 13.8952Z" fill="#1F9CF0"/>
</g>
<g style="mix-blend-mode:overlay" opacity="0.25">
<path fill-rule="evenodd" clip-rule="evenodd" d="M10.5021 13.9181C10.6911 13.9917 10.9066 13.987 11.0974 13.8952L13.568 12.7064C13.8276 12.5815 13.9927 12.3188 13.9927 12.0305V3.96966C13.9927 3.68141 13.8276 3.41867 13.568 3.29375L11.0974 2.10491C10.847 1.98445 10.554 2.01395 10.3343 2.17369C10.3029 2.19651 10.273 2.22199 10.245 2.25007L5.51529 6.56504L3.45514 5.00122C3.26337 4.85564 2.99511 4.86758 2.817 5.02959L2.15624 5.63064C1.93837 5.82884 1.93812 6.17159 2.1557 6.3701L3.94233 8.00007L2.1557 9.63005C1.93812 9.82856 1.93837 10.1713 2.15624 10.3695L2.817 10.9705C2.99511 11.1326 3.26337 11.1445 3.45514 10.9989L5.51529 9.4351L10.245 13.7501C10.3198 13.8249 10.4076 13.8813 10.5021 13.9181ZM10.9945 5.27594L7.40577 8.00007L10.9945 10.7242V5.27594Z" fill="url(#paint0_linear_101_3)"/>
</g>
</g>
</g>
<defs>
<filter id="filter0_d_101_3" x="-6.34066" y="-3.43383" width="28.674" height="25.7362" filterUnits="userSpaceOnUse" color-interpolation-filters="sRGB">
<feFlood flood-opacity="0" result="BackgroundImageFix"/>
<feColorMatrix in="SourceAlpha" type="matrix" values="0 0 0 0 0 0 0 0 0 0 0 0 0 0 0 0 0 0 127 0" result="hardAlpha"/>
<feOffset/>
<feGaussianBlur stdDeviation="4.16667"/>
<feColorMatrix type="matrix" values="0 0 0 0 0 0 0 0 0 0 0 0 0 0 0 0 0 0 0.25 0"/>
<feBlend mode="overlay" in2="BackgroundImageFix" result="effect1_dropShadow_101_3"/>
<feBlend mode="normal" in="SourceGraphic" in2="effect1_dropShadow_101_3" result="shape"/>
</filter>
<filter id="filter1_d_101_3" x="1.91666" y="-6.30239" width="20.4167" height="28.6048" filterUnits="userSpaceOnUse" color-interpolation-filters="sRGB">
<feFlood flood-opacity="0" result="BackgroundImageFix"/>
<feColorMatrix in="SourceAlpha" type="matrix" values="0 0 0 0 0 0 0 0 0 0 0 0 0 0 0 0 0 0 127 0" result="hardAlpha"/>
<feOffset/>
<feGaussianBlur stdDeviation="4.16667"/>
<feColorMatrix type="matrix" values="0 0 0 0 0 0 0 0 0 0 0 0 0 0 0 0 0 0 0.25 0"/>
<feBlend mode="overlay" in2="BackgroundImageFix" result="effect1_dropShadow_101_3"/>
<feBlend mode="normal" in="SourceGraphic" in2="effect1_dropShadow_101_3" result="shape"/>
</filter>
<linearGradient id="paint0_linear_101_3" x1="7.99267" y1="2.03101" x2="7.99267" y2="13.9691" gradientUnits="userSpaceOnUse">
<stop stop-color="white"/>
<stop offset="1" stop-color="white" stop-opacity="0"/>
</linearGradient>
<clipPath id="clip0_101_3">
<rect width="12" height="12" fill="white" transform="translate(2 2)"/>
</clipPath>
</defs>
</svg>
