<svg width="350" height="328" viewBox="0 0 350 328" fill="none" xmlns="http://www.w3.org/2000/svg">
<g filter="url(#filter0_d_50_36)">
<path d="M135.213 223.877C126.103 239.679 126.103 259.553 135.213 275.355C153.386 306.882 196.602 306.882 214.775 275.355L318.095 96.1232C337.065 63.2157 314.709 21 278.314 21C262.07 21 246.999 29.9582 238.532 44.6447L135.213 223.877Z" fill="url(#paint0_radial_50_36)"/>
<path d="M214.787 223.877C223.897 239.679 223.897 259.553 214.787 275.355C196.614 306.882 153.398 306.882 135.225 275.355L31.9052 96.1232C12.9355 63.2157 35.2906 21 71.6864 21C87.9296 21 103.002 29.9582 111.468 44.6447L214.787 223.877Z" fill="url(#paint1_radial_50_36)"/>
</g>
<defs>
<filter id="filter0_d_50_36" x="0" y="0" width="350" height="328" filterUnits="userSpaceOnUse" color-interpolation-filters="sRGB">
<feFlood flood-opacity="0" result="BackgroundImageFix"/>
<feColorMatrix in="SourceAlpha" type="matrix" values="0 0 0 0 0 0 0 0 0 0 0 0 0 0 0 0 0 0 127 0" result="hardAlpha"/>
<feOffset dy="4"/>
<feGaussianBlur stdDeviation="12.5"/>
<feComposite in2="hardAlpha" operator="out"/>
<feColorMatrix type="matrix" values="0 0 0 0 0.470588 0 0 0 0 0.862745 0 0 0 0 0.909804 0 0 0 0.25 0"/>
<feBlend mode="normal" in2="BackgroundImageFix" result="effect1_dropShadow_50_36"/>
<feBlend mode="normal" in="SourceGraphic" in2="effect1_dropShadow_50_36" result="shape"/>
</filter>
<radialGradient id="paint0_radial_50_36" cx="0" cy="0" r="1" gradientUnits="userSpaceOnUse" gradientTransform="translate(175 160) rotate(90) scale(139 150)">
<stop stop-color="#1E7680"/>
<stop offset="1" stop-color="#A4F6FF"/>
</radialGradient>
<radialGradient id="paint1_radial_50_36" cx="0" cy="0" r="1" gradientUnits="userSpaceOnUse" gradientTransform="translate(175 160) rotate(90) scale(139 150)">
<stop stop-color="#C3F9FF"/>
<stop offset="1" stop-color="#78DCE8"/>
</radialGradient>
</defs>
</svg>
