<svg width="922" height="136" viewBox="0 0 922 136" fill="none" xmlns="http://www.w3.org/2000/svg">
<path d="M232 6.03179e-08L153.329 0L78.6711 136H153.329L232 6.03179e-08Z" fill="url(#paint0_linear_139_63)"/>
<path d="M0 6.03179e-08L78.6713 0L153.329 136H78.6715L0 6.03179e-08Z" fill="url(#paint1_linear_139_63)"/>
<path d="M821.839 136V0H921.839V27.2H854.639V52.6H916.839V79.4H854.639V108.8H921.839V136H821.839Z" fill="#111111"/>
<path d="M672.62 136V0H729.02L775.22 132H772.02L771.42 0H802.22V136H745.82L699.62 4H702.82L703.42 136H672.62Z" fill="#111111"/>
<path d="M618.454 136L578.454 80H616.055L658.055 136H618.454ZM537.854 136V0H603.854C619.721 0 632.121 3.86666 641.055 11.6C649.988 19.3333 654.454 29.6667 654.454 42.6V44.6C654.454 53.2667 652.388 60.8 648.255 67.2C644.121 73.4667 638.188 78.3333 630.454 81.8C622.854 85.2667 613.721 87 603.055 87H570.655V136H537.854ZM570.655 62.6H601.454C607.721 62.6 612.588 61.2 616.055 58.4C619.521 55.4667 621.255 51.1333 621.255 45.4V43.4C621.255 37.6667 619.388 33.2667 615.655 30.2C611.921 27.1333 606.455 25.6 599.255 25.6H570.655V62.6Z" fill="#111111"/>
<path d="M419.886 136V0H519.886V27.2H452.686V52.6H514.886V79.4H452.686V108.8H519.886V136H419.886Z" fill="#111111"/>
<path d="M312.2 136L272 0H306.6L343.6 132H340.4L376 0H410L370.6 136H312.2Z" fill="#111111"/>
<defs>
<linearGradient id="paint0_linear_139_63" x1="155.336" y1="136" x2="155.336" y2="0" gradientUnits="userSpaceOnUse">
<stop stop-color="#1E7680"/>
<stop offset="1" stop-color="#A4F6FF"/>
</linearGradient>
<linearGradient id="paint1_linear_139_63" x1="76.6644" y1="136" x2="76.6644" y2="0" gradientUnits="userSpaceOnUse">
<stop stop-color="#C3F9FF"/>
<stop offset="1" stop-color="#78DCE8"/>
</linearGradient>
</defs>
</svg>
