<svg width="1228" height="390" viewBox="0 0 1228 390" fill="none" xmlns="http://www.w3.org/2000/svg">
<g filter="url(#filter0_d_119_111)">
<path d="M135.213 258.877C126.103 274.679 126.103 294.553 135.213 310.355C153.386 341.882 196.602 341.882 214.775 310.355L318.095 131.123C337.065 98.2157 314.709 56 278.314 56C262.07 56 246.999 64.9582 238.532 79.6447L135.213 258.877Z" fill="url(#paint0_radial_119_111)"/>
<path d="M214.787 258.877C223.897 274.679 223.897 294.553 214.787 310.355C196.614 341.882 153.398 341.882 135.225 310.355L31.9052 131.123C12.9355 98.2157 35.2906 56 71.6864 56C87.9296 56 103.002 64.9582 111.468 79.6447L214.787 258.877Z" fill="url(#paint1_radial_119_111)"/>
</g>
<path d="M460.3 300L397 90H441.4L501.7 300H460.3ZM521.8 300H480.4L540.7 90H585.1L521.8 300ZM668.577 304.8C651.377 304.8 636.277 301.1 623.277 293.7C610.477 286.1 600.477 275.6 593.277 262.2C586.277 248.8 582.777 233.5 582.777 216.3C582.777 198.9 586.277 183.5 593.277 170.1C600.477 156.7 610.477 146.2 623.277 138.6C636.277 131 651.377 127.2 668.577 127.2C679.977 127.2 690.777 129.5 700.977 134.1C711.177 138.7 719.977 145.4 727.377 154.2C734.777 163 740.177 173.8 743.577 186.6C746.977 199.4 747.477 214 745.077 230.4H607.077V195.6H715.977L702.177 203.7C703.177 197.9 702.577 192.1 700.377 186.3C698.377 180.3 694.777 175.4 689.577 171.6C684.377 167.6 677.377 165.6 668.577 165.6C658.377 165.6 650.177 167.9 643.977 172.5C637.777 176.9 633.277 183 630.477 190.8C627.877 198.4 626.577 206.9 626.577 216.3C626.577 225.5 627.877 233.9 630.477 241.5C633.277 249.1 637.777 255.2 643.977 259.8C650.177 264.2 658.377 266.4 668.577 266.4C676.777 266.4 683.577 264.5 688.977 260.7C694.377 256.9 698.177 252.2 700.377 246.6H745.677C743.277 258.2 738.577 268.4 731.577 277.2C724.577 285.8 715.677 292.6 704.877 297.6C694.277 302.4 682.177 304.8 668.577 304.8ZM768.374 132H811.274V300H768.374V132ZM811.274 217.8L806.774 186.9C806.774 181.7 807.274 175.7 808.274 168.9C809.274 162.1 811.574 155.6 815.174 149.4C818.974 143 824.774 137.7 832.574 133.5C840.374 129.3 850.974 127.2 864.374 127.2V169.2C852.574 169.2 842.674 170.5 834.674 173.1C826.874 175.7 820.974 180.5 816.974 187.5C813.174 194.3 811.274 204.4 811.274 217.8ZM884.097 132H926.997V157.8C929.197 152.4 932.397 147.4 936.597 142.8C940.997 138.2 946.697 134.5 953.697 131.7C960.897 128.7 969.697 127.2 980.097 127.2C990.897 127.2 1000.5 129.4 1008.9 133.8C1017.3 138.2 1023.9 145.5 1028.7 155.7C1033.5 165.7 1035.9 179.3 1035.9 196.5V300H992.997V200.4C992.997 193.8 992.497 187.8 991.497 182.4C990.497 176.8 988.197 172.4 984.597 169.2C981.197 166 975.697 164.4 968.097 164.4C962.097 164.4 955.897 166.1 949.497 169.5C943.097 172.9 937.697 178.5 933.297 186.3C929.097 193.9 926.997 204.4 926.997 217.8V300H884.097V132ZM1142.31 304.8C1125.11 304.8 1110.01 301.1 1097.01 293.7C1084.21 286.1 1074.21 275.6 1067.01 262.2C1060.01 248.8 1056.51 233.5 1056.51 216.3C1056.51 198.9 1060.01 183.5 1067.01 170.1C1074.21 156.7 1084.21 146.2 1097.01 138.6C1110.01 131 1125.11 127.2 1142.31 127.2C1153.71 127.2 1164.51 129.5 1174.71 134.1C1184.91 138.7 1193.71 145.4 1201.11 154.2C1208.51 163 1213.91 173.8 1217.31 186.6C1220.71 199.4 1221.21 214 1218.81 230.4H1080.81V195.6H1189.71L1175.91 203.7C1176.91 197.9 1176.31 192.1 1174.11 186.3C1172.11 180.3 1168.51 175.4 1163.31 171.6C1158.11 167.6 1151.11 165.6 1142.31 165.6C1132.11 165.6 1123.91 167.9 1117.71 172.5C1111.51 176.9 1107.01 183 1104.21 190.8C1101.61 198.4 1100.31 206.9 1100.31 216.3C1100.31 225.5 1101.61 233.9 1104.21 241.5C1107.01 249.1 1111.51 255.2 1117.71 259.8C1123.91 264.2 1132.11 266.4 1142.31 266.4C1150.51 266.4 1157.31 264.5 1162.71 260.7C1168.11 256.9 1171.91 252.2 1174.11 246.6H1219.41C1217.01 258.2 1212.31 268.4 1205.31 277.2C1198.31 285.8 1189.41 292.6 1178.61 297.6C1168.01 302.4 1155.91 304.8 1142.31 304.8Z" fill="black"/>
<defs>
<filter id="filter0_d_119_111" x="0" y="35" width="350" height="328" filterUnits="userSpaceOnUse" color-interpolation-filters="sRGB">
<feFlood flood-opacity="0" result="BackgroundImageFix"/>
<feColorMatrix in="SourceAlpha" type="matrix" values="0 0 0 0 0 0 0 0 0 0 0 0 0 0 0 0 0 0 127 0" result="hardAlpha"/>
<feOffset dy="4"/>
<feGaussianBlur stdDeviation="12.5"/>
<feComposite in2="hardAlpha" operator="out"/>
<feColorMatrix type="matrix" values="0 0 0 0 0.470588 0 0 0 0 0.862745 0 0 0 0 0.909804 0 0 0 0.25 0"/>
<feBlend mode="normal" in2="BackgroundImageFix" result="effect1_dropShadow_119_111"/>
<feBlend mode="normal" in="SourceGraphic" in2="effect1_dropShadow_119_111" result="shape"/>
</filter>
<radialGradient id="paint0_radial_119_111" cx="0" cy="0" r="1" gradientUnits="userSpaceOnUse" gradientTransform="translate(175 195) rotate(90) scale(139 150)">
<stop stop-color="#1E7680"/>
<stop offset="1" stop-color="#A4F6FF"/>
</radialGradient>
<radialGradient id="paint1_radial_119_111" cx="0" cy="0" r="1" gradientUnits="userSpaceOnUse" gradientTransform="translate(175 195) rotate(90) scale(139 150)">
<stop stop-color="#C3F9FF"/>
<stop offset="1" stop-color="#78DCE8"/>
</radialGradient>
</defs>
</svg>
